<mxfile host="app.diagrams.net" modified="2023-05-03T03:12:16.613Z" agent="Mozilla/5.0 (Macintosh; Intel Mac OS X 10_15_7) AppleWebKit/605.1.15 (KHTML, like Gecko) Version/16.4 Safari/605.1.15" etag="Pip6_2MFw4jo3Z1CVnE_" version="21.2.6" type="github">
  <diagram id="C5RBs43oDa-KdzZeNtuy" name="Page-1">
    <mxGraphModel dx="1015" dy="956" grid="1" gridSize="10" guides="1" tooltips="1" connect="1" arrows="1" fold="1" page="1" pageScale="1" pageWidth="827" pageHeight="1169" math="0" shadow="0">
      <root>
        <mxCell id="WIyWlLk6GJQsqaUBKTNV-0" />
        <mxCell id="WIyWlLk6GJQsqaUBKTNV-1" parent="WIyWlLk6GJQsqaUBKTNV-0" />
        <mxCell id="wulh4WdZ1Pj3DoErjVGG-10" style="edgeStyle=orthogonalEdgeStyle;rounded=0;orthogonalLoop=1;jettySize=auto;html=1;entryX=0.314;entryY=0.086;entryDx=0;entryDy=0;entryPerimeter=0;" edge="1" parent="WIyWlLk6GJQsqaUBKTNV-1" source="wulh4WdZ1Pj3DoErjVGG-0" target="wulh4WdZ1Pj3DoErjVGG-4">
          <mxGeometry relative="1" as="geometry">
            <mxPoint x="620" y="330" as="targetPoint" />
          </mxGeometry>
        </mxCell>
        <mxCell id="wulh4WdZ1Pj3DoErjVGG-13" style="edgeStyle=orthogonalEdgeStyle;rounded=0;orthogonalLoop=1;jettySize=auto;html=1;entryX=0.5;entryY=0.079;entryDx=0;entryDy=0;entryPerimeter=0;" edge="1" parent="WIyWlLk6GJQsqaUBKTNV-1" source="wulh4WdZ1Pj3DoErjVGG-0" target="wulh4WdZ1Pj3DoErjVGG-1">
          <mxGeometry relative="1" as="geometry" />
        </mxCell>
        <mxCell id="wulh4WdZ1Pj3DoErjVGG-18" style="edgeStyle=orthogonalEdgeStyle;rounded=0;orthogonalLoop=1;jettySize=auto;html=1;entryX=0.362;entryY=0.086;entryDx=0;entryDy=0;entryPerimeter=0;" edge="1" parent="WIyWlLk6GJQsqaUBKTNV-1" source="wulh4WdZ1Pj3DoErjVGG-0" target="wulh4WdZ1Pj3DoErjVGG-3">
          <mxGeometry relative="1" as="geometry">
            <mxPoint x="200" y="760" as="targetPoint" />
            <Array as="points">
              <mxPoint x="490" y="370" />
            </Array>
          </mxGeometry>
        </mxCell>
        <mxCell id="wulh4WdZ1Pj3DoErjVGG-19" style="edgeStyle=orthogonalEdgeStyle;rounded=0;orthogonalLoop=1;jettySize=auto;html=1;entryX=0;entryY=0;entryDx=0;entryDy=108.5;entryPerimeter=0;exitX=0.495;exitY=0.071;exitDx=0;exitDy=0;exitPerimeter=0;" edge="1" parent="WIyWlLk6GJQsqaUBKTNV-1" source="wulh4WdZ1Pj3DoErjVGG-0" target="wulh4WdZ1Pj3DoErjVGG-5">
          <mxGeometry relative="1" as="geometry">
            <mxPoint x="345" y="200" as="targetPoint" />
          </mxGeometry>
        </mxCell>
        <mxCell id="wulh4WdZ1Pj3DoErjVGG-0" value="BusinessLogic" style="shape=folder;fontStyle=1;spacingTop=10;tabWidth=40;tabHeight=14;tabPosition=left;html=1;whiteSpace=wrap;" vertex="1" parent="WIyWlLk6GJQsqaUBKTNV-1">
          <mxGeometry x="240" y="260" width="210" height="140" as="geometry" />
        </mxCell>
        <mxCell id="wulh4WdZ1Pj3DoErjVGG-12" style="edgeStyle=orthogonalEdgeStyle;rounded=0;orthogonalLoop=1;jettySize=auto;html=1;entryX=0.005;entryY=0.429;entryDx=0;entryDy=0;entryPerimeter=0;" edge="1" parent="WIyWlLk6GJQsqaUBKTNV-1" source="wulh4WdZ1Pj3DoErjVGG-1" target="wulh4WdZ1Pj3DoErjVGG-4">
          <mxGeometry relative="1" as="geometry" />
        </mxCell>
        <mxCell id="wulh4WdZ1Pj3DoErjVGG-20" style="edgeStyle=orthogonalEdgeStyle;rounded=0;orthogonalLoop=1;jettySize=auto;html=1;exitX=0;exitY=0;exitDx=210;exitDy=14;exitPerimeter=0;entryX=0.29;entryY=1.029;entryDx=0;entryDy=0;entryPerimeter=0;" edge="1" parent="WIyWlLk6GJQsqaUBKTNV-1" source="wulh4WdZ1Pj3DoErjVGG-1" target="wulh4WdZ1Pj3DoErjVGG-7">
          <mxGeometry relative="1" as="geometry" />
        </mxCell>
        <mxCell id="wulh4WdZ1Pj3DoErjVGG-1" value="IBusinessLogic" style="shape=folder;fontStyle=1;spacingTop=10;tabWidth=40;tabHeight=14;tabPosition=left;html=1;whiteSpace=wrap;" vertex="1" parent="WIyWlLk6GJQsqaUBKTNV-1">
          <mxGeometry x="240" y="470" width="210" height="140" as="geometry" />
        </mxCell>
        <mxCell id="wulh4WdZ1Pj3DoErjVGG-14" style="edgeStyle=orthogonalEdgeStyle;rounded=0;orthogonalLoop=1;jettySize=auto;html=1;entryX=1;entryY=0.5;entryDx=0;entryDy=0;entryPerimeter=0;" edge="1" parent="WIyWlLk6GJQsqaUBKTNV-1" source="wulh4WdZ1Pj3DoErjVGG-2" target="wulh4WdZ1Pj3DoErjVGG-3">
          <mxGeometry relative="1" as="geometry" />
        </mxCell>
        <mxCell id="wulh4WdZ1Pj3DoErjVGG-15" style="edgeStyle=orthogonalEdgeStyle;rounded=0;orthogonalLoop=1;jettySize=auto;html=1;entryX=0.75;entryY=1;entryDx=0;entryDy=0;entryPerimeter=0;exitX=0.505;exitY=0.064;exitDx=0;exitDy=0;exitPerimeter=0;" edge="1" parent="WIyWlLk6GJQsqaUBKTNV-1" source="wulh4WdZ1Pj3DoErjVGG-2" target="wulh4WdZ1Pj3DoErjVGG-4">
          <mxGeometry relative="1" as="geometry">
            <mxPoint x="855" y="570" as="targetPoint" />
          </mxGeometry>
        </mxCell>
        <mxCell id="wulh4WdZ1Pj3DoErjVGG-2" value="DataAccess" style="shape=folder;fontStyle=1;spacingTop=10;tabWidth=40;tabHeight=14;tabPosition=left;html=1;whiteSpace=wrap;" vertex="1" parent="WIyWlLk6GJQsqaUBKTNV-1">
          <mxGeometry x="750" y="680" width="210" height="140" as="geometry" />
        </mxCell>
        <mxCell id="wulh4WdZ1Pj3DoErjVGG-16" style="edgeStyle=orthogonalEdgeStyle;rounded=0;orthogonalLoop=1;jettySize=auto;html=1;entryX=0.195;entryY=1.014;entryDx=0;entryDy=0;entryPerimeter=0;exitX=0.5;exitY=0.071;exitDx=0;exitDy=0;exitPerimeter=0;" edge="1" parent="WIyWlLk6GJQsqaUBKTNV-1" source="wulh4WdZ1Pj3DoErjVGG-3" target="wulh4WdZ1Pj3DoErjVGG-4">
          <mxGeometry relative="1" as="geometry" />
        </mxCell>
        <mxCell id="wulh4WdZ1Pj3DoErjVGG-3" value="IDataAccess" style="shape=folder;fontStyle=1;spacingTop=10;tabWidth=40;tabHeight=14;tabPosition=left;html=1;whiteSpace=wrap;" vertex="1" parent="WIyWlLk6GJQsqaUBKTNV-1">
          <mxGeometry x="414" y="680" width="210" height="140" as="geometry" />
        </mxCell>
        <mxCell id="wulh4WdZ1Pj3DoErjVGG-4" value="Domain" style="shape=folder;fontStyle=1;spacingTop=10;tabWidth=40;tabHeight=14;tabPosition=left;html=1;whiteSpace=wrap;" vertex="1" parent="WIyWlLk6GJQsqaUBKTNV-1">
          <mxGeometry x="590" y="500" width="210" height="140" as="geometry" />
        </mxCell>
        <mxCell id="wulh4WdZ1Pj3DoErjVGG-5" value="Exceptions" style="shape=folder;fontStyle=1;spacingTop=10;tabWidth=40;tabHeight=14;tabPosition=left;html=1;whiteSpace=wrap;" vertex="1" parent="WIyWlLk6GJQsqaUBKTNV-1">
          <mxGeometry x="438" y="100" width="210" height="140" as="geometry" />
        </mxCell>
        <mxCell id="wulh4WdZ1Pj3DoErjVGG-6" value="Models" style="shape=folder;fontStyle=1;spacingTop=10;tabWidth=40;tabHeight=14;tabPosition=left;html=1;whiteSpace=wrap;" vertex="1" parent="WIyWlLk6GJQsqaUBKTNV-1">
          <mxGeometry x="940" y="370" width="210" height="140" as="geometry" />
        </mxCell>
        <mxCell id="wulh4WdZ1Pj3DoErjVGG-9" value="" style="edgeStyle=orthogonalEdgeStyle;rounded=0;orthogonalLoop=1;jettySize=auto;html=1;entryX=0.505;entryY=0.071;entryDx=0;entryDy=0;entryPerimeter=0;" edge="1" parent="WIyWlLk6GJQsqaUBKTNV-1" source="wulh4WdZ1Pj3DoErjVGG-7" target="wulh4WdZ1Pj3DoErjVGG-4">
          <mxGeometry relative="1" as="geometry">
            <mxPoint x="594" y="170" as="targetPoint" />
          </mxGeometry>
        </mxCell>
        <mxCell id="wulh4WdZ1Pj3DoErjVGG-37" style="edgeStyle=orthogonalEdgeStyle;rounded=0;orthogonalLoop=1;jettySize=auto;html=1;entryX=0.5;entryY=0.081;entryDx=0;entryDy=0;entryPerimeter=0;" edge="1" parent="WIyWlLk6GJQsqaUBKTNV-1" source="wulh4WdZ1Pj3DoErjVGG-7" target="wulh4WdZ1Pj3DoErjVGG-6">
          <mxGeometry relative="1" as="geometry">
            <Array as="points">
              <mxPoint x="1045" y="170" />
            </Array>
          </mxGeometry>
        </mxCell>
        <mxCell id="wulh4WdZ1Pj3DoErjVGG-7" value="WebApi" style="shape=folder;fontStyle=1;spacingTop=10;tabWidth=40;tabHeight=14;tabPosition=left;html=1;whiteSpace=wrap;" vertex="1" parent="WIyWlLk6GJQsqaUBKTNV-1">
          <mxGeometry x="740" y="100" width="210" height="140" as="geometry" />
        </mxCell>
        <mxCell id="wulh4WdZ1Pj3DoErjVGG-33" style="edgeStyle=orthogonalEdgeStyle;rounded=0;orthogonalLoop=1;jettySize=auto;html=1;entryX=0;entryY=0;entryDx=0;entryDy=27;entryPerimeter=0;" edge="1" parent="WIyWlLk6GJQsqaUBKTNV-1" source="wulh4WdZ1Pj3DoErjVGG-21" target="wulh4WdZ1Pj3DoErjVGG-29">
          <mxGeometry relative="1" as="geometry" />
        </mxCell>
        <mxCell id="wulh4WdZ1Pj3DoErjVGG-21" value="" style="shape=sumEllipse;perimeter=ellipsePerimeter;whiteSpace=wrap;html=1;backgroundOutline=1;" vertex="1" parent="WIyWlLk6GJQsqaUBKTNV-1">
          <mxGeometry x="950" y="810" width="20" height="20" as="geometry" />
        </mxCell>
        <mxCell id="wulh4WdZ1Pj3DoErjVGG-32" style="edgeStyle=orthogonalEdgeStyle;rounded=0;orthogonalLoop=1;jettySize=auto;html=1;entryX=0;entryY=0;entryDx=0;entryDy=20.5;entryPerimeter=0;" edge="1" parent="WIyWlLk6GJQsqaUBKTNV-1" source="wulh4WdZ1Pj3DoErjVGG-22" target="wulh4WdZ1Pj3DoErjVGG-28">
          <mxGeometry relative="1" as="geometry" />
        </mxCell>
        <mxCell id="wulh4WdZ1Pj3DoErjVGG-22" value="" style="shape=sumEllipse;perimeter=ellipsePerimeter;whiteSpace=wrap;html=1;backgroundOutline=1;" vertex="1" parent="WIyWlLk6GJQsqaUBKTNV-1">
          <mxGeometry x="950" y="770" width="20" height="20" as="geometry" />
        </mxCell>
        <mxCell id="wulh4WdZ1Pj3DoErjVGG-31" style="edgeStyle=orthogonalEdgeStyle;rounded=0;orthogonalLoop=1;jettySize=auto;html=1;entryX=0;entryY=0;entryDx=0;entryDy=27;entryPerimeter=0;" edge="1" parent="WIyWlLk6GJQsqaUBKTNV-1" source="wulh4WdZ1Pj3DoErjVGG-23" target="wulh4WdZ1Pj3DoErjVGG-27">
          <mxGeometry relative="1" as="geometry" />
        </mxCell>
        <mxCell id="wulh4WdZ1Pj3DoErjVGG-23" value="" style="shape=sumEllipse;perimeter=ellipsePerimeter;whiteSpace=wrap;html=1;backgroundOutline=1;" vertex="1" parent="WIyWlLk6GJQsqaUBKTNV-1">
          <mxGeometry x="950" y="730" width="20" height="20" as="geometry" />
        </mxCell>
        <mxCell id="wulh4WdZ1Pj3DoErjVGG-30" style="edgeStyle=orthogonalEdgeStyle;rounded=0;orthogonalLoop=1;jettySize=auto;html=1;entryX=0;entryY=0;entryDx=0;entryDy=27;entryPerimeter=0;" edge="1" parent="WIyWlLk6GJQsqaUBKTNV-1" source="wulh4WdZ1Pj3DoErjVGG-24" target="wulh4WdZ1Pj3DoErjVGG-26">
          <mxGeometry relative="1" as="geometry" />
        </mxCell>
        <mxCell id="wulh4WdZ1Pj3DoErjVGG-24" value="" style="shape=sumEllipse;perimeter=ellipsePerimeter;whiteSpace=wrap;html=1;backgroundOutline=1;" vertex="1" parent="WIyWlLk6GJQsqaUBKTNV-1">
          <mxGeometry x="950" y="690" width="20" height="20" as="geometry" />
        </mxCell>
        <mxCell id="wulh4WdZ1Pj3DoErjVGG-26" value="Context" style="shape=folder;fontStyle=1;spacingTop=10;tabWidth=40;tabHeight=14;tabPosition=left;html=1;whiteSpace=wrap;" vertex="1" parent="WIyWlLk6GJQsqaUBKTNV-1">
          <mxGeometry x="1040" y="660" width="80" height="40" as="geometry" />
        </mxCell>
        <mxCell id="wulh4WdZ1Pj3DoErjVGG-27" value="Migrations" style="shape=folder;fontStyle=1;spacingTop=10;tabWidth=40;tabHeight=14;tabPosition=left;html=1;whiteSpace=wrap;" vertex="1" parent="WIyWlLk6GJQsqaUBKTNV-1">
          <mxGeometry x="1040" y="710" width="80" height="40" as="geometry" />
        </mxCell>
        <mxCell id="wulh4WdZ1Pj3DoErjVGG-28" value="Models" style="shape=folder;fontStyle=1;spacingTop=10;tabWidth=40;tabHeight=14;tabPosition=left;html=1;whiteSpace=wrap;" vertex="1" parent="WIyWlLk6GJQsqaUBKTNV-1">
          <mxGeometry x="1040" y="760" width="80" height="40" as="geometry" />
        </mxCell>
        <mxCell id="wulh4WdZ1Pj3DoErjVGG-29" value="Repositories" style="shape=folder;fontStyle=1;spacingTop=10;tabWidth=40;tabHeight=14;tabPosition=left;html=1;whiteSpace=wrap;" vertex="1" parent="WIyWlLk6GJQsqaUBKTNV-1">
          <mxGeometry x="1040" y="810" width="80" height="40" as="geometry" />
        </mxCell>
        <mxCell id="wulh4WdZ1Pj3DoErjVGG-36" style="edgeStyle=orthogonalEdgeStyle;rounded=0;orthogonalLoop=1;jettySize=auto;html=1;entryX=0;entryY=0;entryDx=0;entryDy=20.5;entryPerimeter=0;" edge="1" parent="WIyWlLk6GJQsqaUBKTNV-1" source="wulh4WdZ1Pj3DoErjVGG-34" target="wulh4WdZ1Pj3DoErjVGG-35">
          <mxGeometry relative="1" as="geometry" />
        </mxCell>
        <mxCell id="wulh4WdZ1Pj3DoErjVGG-34" value="" style="shape=sumEllipse;perimeter=ellipsePerimeter;whiteSpace=wrap;html=1;backgroundOutline=1;" vertex="1" parent="WIyWlLk6GJQsqaUBKTNV-1">
          <mxGeometry x="790" y="585" width="20" height="20" as="geometry" />
        </mxCell>
        <mxCell id="wulh4WdZ1Pj3DoErjVGG-35" value="SearchCriterias" style="shape=folder;fontStyle=1;spacingTop=10;tabWidth=40;tabHeight=14;tabPosition=left;html=1;whiteSpace=wrap;" vertex="1" parent="WIyWlLk6GJQsqaUBKTNV-1">
          <mxGeometry x="840" y="575" width="100" height="40" as="geometry" />
        </mxCell>
        <mxCell id="wulh4WdZ1Pj3DoErjVGG-43" style="edgeStyle=orthogonalEdgeStyle;rounded=0;orthogonalLoop=1;jettySize=auto;html=1;exitX=0.5;exitY=1;exitDx=0;exitDy=0;entryX=0;entryY=0;entryDx=40;entryDy=0;entryPerimeter=0;" edge="1" parent="WIyWlLk6GJQsqaUBKTNV-1" source="wulh4WdZ1Pj3DoErjVGG-38" target="wulh4WdZ1Pj3DoErjVGG-41">
          <mxGeometry relative="1" as="geometry" />
        </mxCell>
        <mxCell id="wulh4WdZ1Pj3DoErjVGG-38" value="" style="shape=sumEllipse;perimeter=ellipsePerimeter;whiteSpace=wrap;html=1;backgroundOutline=1;" vertex="1" parent="WIyWlLk6GJQsqaUBKTNV-1">
          <mxGeometry x="1000" y="510" width="20" height="20" as="geometry" />
        </mxCell>
        <mxCell id="wulh4WdZ1Pj3DoErjVGG-45" style="edgeStyle=orthogonalEdgeStyle;rounded=0;orthogonalLoop=1;jettySize=auto;html=1;exitX=0.5;exitY=1;exitDx=0;exitDy=0;entryX=0.121;entryY=-0.083;entryDx=0;entryDy=0;entryPerimeter=0;" edge="1" parent="WIyWlLk6GJQsqaUBKTNV-1" source="wulh4WdZ1Pj3DoErjVGG-39" target="wulh4WdZ1Pj3DoErjVGG-42">
          <mxGeometry relative="1" as="geometry" />
        </mxCell>
        <mxCell id="wulh4WdZ1Pj3DoErjVGG-39" value="" style="shape=sumEllipse;perimeter=ellipsePerimeter;whiteSpace=wrap;html=1;backgroundOutline=1;" vertex="1" parent="WIyWlLk6GJQsqaUBKTNV-1">
          <mxGeometry x="1070" y="510" width="20" height="20" as="geometry" />
        </mxCell>
        <mxCell id="wulh4WdZ1Pj3DoErjVGG-41" value="In" style="shape=folder;fontStyle=1;spacingTop=10;tabWidth=40;tabHeight=14;tabPosition=left;html=1;whiteSpace=wrap;" vertex="1" parent="WIyWlLk6GJQsqaUBKTNV-1">
          <mxGeometry x="970" y="550" width="80" height="40" as="geometry" />
        </mxCell>
        <mxCell id="wulh4WdZ1Pj3DoErjVGG-42" value="Out" style="shape=folder;fontStyle=1;spacingTop=10;tabWidth=40;tabHeight=14;tabPosition=left;html=1;whiteSpace=wrap;" vertex="1" parent="WIyWlLk6GJQsqaUBKTNV-1">
          <mxGeometry x="1070" y="550" width="80" height="40" as="geometry" />
        </mxCell>
      </root>
    </mxGraphModel>
  </diagram>
</mxfile>
